# xmcd
#
# Track frame offsets:
#	150
#	11485
#	21528
#	35578
#	46343
#	57208
#	67163
#	79185
#	91393
#	104375
#	116690
#	129450
#	139560
#	150123
#	161840
#	173028
#	184325
#	198098
#	209033
#	222233
#
# Disc length: 3093 seconds
#
# Revision: 1
# Processed by: cddbd v1.5.2PL0 Copyright (c) Steve Scherf et al.
# Submitted via: EZCDAudioConverter 6.0.7.1
#
DISCID=1c0c1314
DTITLE=Hank Thompson - Hank Thompson 20 Greatest Hits
DYEAR=1994
DGENRE=Country
TTITLE0=Squaws Along The Yukon
TTITLE1=Rub -A - Dub - Dub
TTITLE2=Blackboard Of My Heart
TTITLE3=The New Green Light
TTITLE4=The Older The Violin The Sweeter The Music
TTITLE5=A Six Pack To Go
TTITLE6=Who Left The Door To Heaven Open
TTITLE7=I've Come Awful Close
TTITLE8=Anybody's Girl
TTITLE9=Tears Are Only Rain
TTITLE10=Wild Side Of Life
TTITLE11=Humpty Dumpty Heart
TTITLE12=Wake Up Irene
TTITLE13=Smokey The Bar
TTITLE14=Okahoma Hills
TTITLE15=On Tap, In The Can Or In The Bottle
TTITLE16=Yesterday's Girl
TTITLE17=Honky Tonk Girl
TTITLE18=We've Gone Too Far
TTITLE19=Cab Driver
EXTD=
EXTT0=
EXTT1=
EXTT2=
EXTT3=
EXTT4=
EXTT5=
EXTT6=
EXTT7=
EXTT8=
EXTT9=
EXTT10=
EXTT11=
EXTT12=
EXTT13=
EXTT14=
EXTT15=
EXTT16=
EXTT17=
EXTT18=
EXTT19=
PLAYORDER=
